<svg width="11" height="14" viewBox="0 0 11 14" fill="none" xmlns="http://www.w3.org/2000/svg">
<g id="PayPal">
<path id="Vector" d="M3.23634 12.7688L3.45087 11.4063L2.97305 11.3952H0.691406L2.27705 1.34109C2.28189 1.31074 2.29795 1.28244 2.32132 1.26234C2.3447 1.24225 2.37469 1.23117 2.40586 1.23117H6.25307C7.53032 1.23117 8.4117 1.49695 8.87192 2.02154C9.08763 2.26763 9.22506 2.5248 9.29153 2.8078C9.36119 3.10476 9.36249 3.45954 9.29436 3.89226L9.28941 3.92384V4.2011L9.50523 4.32334C9.68694 4.41971 9.83121 4.53005 9.94196 4.65638C10.1266 4.86679 10.246 5.13421 10.2964 5.45125C10.3485 5.77733 10.3312 6.16533 10.246 6.60462C10.1475 7.10993 9.98836 7.55003 9.77348 7.91014C9.57572 8.24196 9.32388 8.51711 9.02494 8.73046C8.73945 8.93306 8.40024 9.0869 8.01676 9.18537C7.64508 9.28207 7.22146 9.33095 6.75675 9.33095H6.45733C6.24328 9.33095 6.03524 9.40805 5.87207 9.5463C5.70843 9.68739 5.60005 9.88008 5.56687 10.0909L5.54432 10.2136L5.16532 12.615L5.14809 12.7032C5.1436 12.7312 5.13581 12.7451 5.12435 12.7545C5.11408 12.763 5.09932 12.7688 5.08492 12.7688H3.23634Z" fill="#253B80"/>
<path id="Vector_2" d="M9.70805 3.95639C9.6966 4.0298 9.6835 4.10486 9.66874 4.18197C9.16129 6.78687 7.42558 7.68675 5.20864 7.68675H4.07992C3.80884 7.68675 3.58038 7.88362 3.53811 8.15104L2.96017 11.8162L2.79653 12.8551C2.76902 13.0307 2.90444 13.189 3.08154 13.189H5.0836C5.32068 13.189 5.52199 13.0167 5.5593 12.783L5.57902 12.6812L5.956 10.2892L5.98021 10.158C6.01704 9.92338 6.21882 9.75112 6.4559 9.75112H6.75532C8.69492 9.75112 10.2134 8.96361 10.6572 6.68474C10.8426 5.73277 10.7466 4.93789 10.256 4.37885C10.1076 4.21027 9.92341 4.07041 9.70805 3.95639Z" fill="#179BD7"/>
<path id="Vector_3" d="M9.17635 3.74412C9.09889 3.72156 9.01884 3.70105 8.93679 3.68259C8.85438 3.66455 8.76984 3.64855 8.68294 3.63461C8.37857 3.58539 8.04515 3.56201 7.68787 3.56201H4.67244C4.59818 3.56201 4.52769 3.57882 4.46453 3.60918C4.32544 3.67603 4.22213 3.8077 4.1971 3.96888L3.55553 8.03189L3.53711 8.15041C3.57938 7.88299 3.80784 7.68612 4.07892 7.68612H5.20764C7.42458 7.68612 9.16041 6.78583 9.66774 4.18134C9.68285 4.10423 9.6956 4.02918 9.70706 3.95577C9.57872 3.88768 9.43963 3.82943 9.28993 3.7798C9.25309 3.7675 9.21495 3.75561 9.17635 3.74412Z" fill="#222D65"/>
<path id="Vector_4" d="M4.19904 3.96916C4.22407 3.80796 4.3275 3.6763 4.46646 3.60986C4.5301 3.5795 4.60023 3.56269 4.67438 3.56269H7.68993C8.0472 3.56269 8.38062 3.58607 8.68488 3.63529C8.7719 3.64923 8.85643 3.66523 8.93884 3.68327C9.0209 3.70174 9.10083 3.72224 9.1784 3.74479C9.21689 3.75628 9.25502 3.76817 9.29233 3.78007C9.44204 3.8297 9.58113 3.88835 9.70947 3.95603C9.86047 2.99339 9.70829 2.33797 9.18785 1.74447C8.61404 1.0911 7.57835 0.811371 6.25317 0.811371H2.40584C2.13511 0.811371 1.90429 1.00824 1.86238 1.27607L0.259971 11.4336C0.228329 11.6345 0.383351 11.8159 0.585954 11.8159H2.96123L3.55758 8.03215L4.19904 3.96916Z" fill="#253B80"/>
</g>
</svg>
