<svg width="23" height="14" viewBox="0 0 23 14" fill="none" xmlns="http://www.w3.org/2000/svg">
<g id="Mastercard">
<path id="Left" fill-rule="evenodd" clip-rule="evenodd" d="M11.75 12.1569C10.5584 13.1852 9.01276 13.806 7.32377 13.806C3.55511 13.806 0.5 10.7154 0.5 6.90299C0.5 3.09057 3.55511 0 7.32377 0C9.01276 0 10.5584 0.620751 11.75 1.64903C12.9416 0.620751 14.4872 0 16.1762 0C19.9449 0 23 3.09057 23 6.90299C23 10.7154 19.9449 13.806 16.1762 13.806C14.4872 13.806 12.9416 13.1852 11.75 12.1569Z" fill="#ED0006"/>
<path id="Right" fill-rule="evenodd" clip-rule="evenodd" d="M11.75 12.1569C13.2172 10.8908 14.1475 9.00681 14.1475 6.90299C14.1475 4.79917 13.2172 2.91517 11.75 1.64903C12.9416 0.620751 14.4872 0 16.1762 0C19.9449 0 23 3.09057 23 6.90299C23 10.7154 19.9449 13.806 16.1762 13.806C14.4872 13.806 12.9416 13.1852 11.75 12.1569Z" fill="#F9A000"/>
<path id="Middle" fill-rule="evenodd" clip-rule="evenodd" d="M11.7501 1.64908C13.2172 2.91521 14.1476 4.79921 14.1476 6.90301C14.1476 9.00681 13.2172 10.8908 11.7501 12.1569C10.2829 10.8908 9.35254 9.00681 9.35254 6.90301C9.35254 4.7992 10.2829 2.91521 11.7501 1.64908Z" fill="#FF5E00"/>
</g>
</svg>
